<svg width="44" height="47" viewBox="0 0 44 47" fill="none" xmlns="http://www.w3.org/2000/svg">
<path d="M36.9436 5.17054V13.4455C36.9436 14.0071 36.4796 14.4627 35.9078 14.4627H35.1741C34.6022 14.4627 34.1383 14.0071 34.1383 13.4455V3.01968C32.0127 1.63169 29.6282 0.59334 27.0711 0V14.3567C27.0711 14.9183 26.6071 15.3739 26.0353 15.3739H17.9431C17.3712 15.3739 16.9073 14.9183 16.9073 14.3567V0C14.3825 0.59334 11.998 1.64228 9.87248 3.01968V13.4455C9.87248 14.0071 9.40853 14.4627 8.83668 14.4627H8.10299C7.53114 14.4627 7.06718 14.0071 7.06718 13.4455V5.17054C2.72977 9.112 0 14.7381 0 21H44C44.0108 14.7381 41.2918 9.112 36.9436 5.17054Z" fill="#FFB342"/>
<path d="M39.0644 29.098H44V25H29.733C29.4735 29.2521 25.9028 32.626 21.5381 32.626C17.1734 32.626 13.6027 29.2521 13.3432 25H3.58201e-07L0 29.098H4.07408C4.29205 29.9402 4.57749 30.767 4.92003 31.5784C5.30927 32.4925 5.77118 33.3655 6.30574 34.1923L2.74027 37.7203L8.35575 43.2768L11.9264 39.7437C12.7516 40.2624 13.6235 40.7143 14.5317 41.0943C15.5541 41.5205 16.6077 41.8543 17.682 42.0854V47H25.6329V42.0443C26.645 41.8133 27.6362 41.4949 28.6015 41.0943C29.5773 40.6886 30.5062 40.2007 31.3833 39.6359L34.8917 43.1074L40.5124 37.5457L36.9469 34.0177C37.4348 33.2423 37.8552 32.4258 38.2184 31.5784C38.561 30.767 38.8464 29.9402 39.0644 29.098Z" fill="white"/>
</svg>
